<!DOCTYPE svg PUBLIC "-//W3C//DTD SVG 20010904//EN"
 "http://www.w3.org/TR/2001/REC-SVG-20010904/DTD/svg10.dtd">
<svg version="1.0" xmlns="http://www.w3.org/2000/svg"
 width="1024.000000pt" height="1024.000000pt" viewBox="0 0 1024.000000 1024.000000"
 preserveAspectRatio="xMidYMid meet">

<g transform="translate(0.000000,1024.000000) scale(0.100000,-0.100000)"
fill="#511BD8" stroke="none">
<path d="M0 5120 l0 -5120 5120 0 5120 0 0 5120 0 5120 -5120 0 -5120 0 0
-5120z m2059 4564 c23 -26 621 -851 729 -1005 33 -49 42 -70 42 -104 0 -58
-34 -106 -88 -125 -37 -13 -47 -13 -84 0 -40 14 -59 37 -298 364 l-255 350 -5
-1665 c-5 -1578 -6 -1666 -23 -1697 -36 -66 -121 -91 -182 -53 -17 10 -127
133 -245 274 l-215 257 -5 -873 c-5 -822 -6 -874 -23 -899 -27 -39 -63 -59
-108 -60 -46 0 -83 21 -110 65 -19 31 -19 55 -17 1115 l3 1084 37 33 c20 19
52 37 71 40 68 13 92 -7 304 -262 110 -131 211 -251 226 -268 l26 -30 1 1449
0 1450 -218 -350 c-203 -324 -222 -351 -263 -372 -69 -36 -137 -17 -180 51
-41 65 -40 66 343 677 227 363 363 570 379 578 14 8 46 11 78 9 45 -3 59 -9
80 -33z m1338 -1074 c64 -39 68 -53 71 -277 2 -112 6 -203 8 -203 3 0 32 14
65 31 237 119 550 224 829 278 794 154 1618 1 2309 -429 353 -219 706 -555
943 -895 164 -237 318 -543 397 -788 27 -84 30 -104 21 -136 -22 -82 -115
-125 -189 -87 -39 21 -54 47 -102 178 -55 151 -153 354 -245 507 -530 889
-1488 1431 -2529 1431 -483 0 -955 -117 -1387 -343 l-118 -62 0 -165 c0 -91
-5 -183 -10 -205 -25 -110 -172 -138 -230 -43 -19 32 -20 49 -20 582 0 532 1
550 20 581 22 36 71 64 110 65 14 0 39 -9 57 -20z m1809 -1021 c697 -68 1336
-457 1724 -1049 82 -126 200 -367 248 -510 90 -264 124 -475 125 -760 0 -207
-7 -292 -44 -475 -200 -995 -1027 -1747 -2041 -1855 -125 -13 -371 -13 -496 0
-615 65 -1191 380 -1575 860 -211 263 -387 631 -456 950 -69 321 -69 715 -1
1019 193 863 845 1539 1695 1756 119 31 279 59 380 68 94 8 340 6 441 -4z
m3061 -1699 c18 -10 40 -31 50 -47 17 -26 18 -92 21 -1286 1 -848 -1 -1271 -8
-1297 -19 -71 -119 -112 -187 -77 -17 9 -128 133 -249 278 l-219 262 -3 -646
c-1 -355 -1 -939 0 -1297 l3 -652 220 352 c240 384 244 389 324 376 70 -11
127 -80 117 -144 -7 -49 -700 -1166 -732 -1181 -35 -15 -99 -14 -133 4 -21 10
-123 162 -377 562 -435 684 -414 649 -414 692 0 103 132 170 208 107 16 -14
136 -195 268 -403 l239 -378 5 1520 c4 1211 8 1525 18 1542 7 13 31 32 54 44
54 27 109 21 148 -16 16 -15 122 -139 237 -276 l208 -249 5 1072 c4 830 8
1078 17 1095 36 62 117 82 180 43z m763 -33 c13 -7 35 -28 47 -46 l23 -34 -2
-1094 -3 -1093 -36 -36 c-63 -62 -147 -53 -196 23 -17 26 -18 85 -21 1078 -2
577 0 1069 3 1092 7 46 44 99 79 113 31 13 78 11 106 -3z m-7076 -478 c46 -36
53 -63 59 -239 23 -604 220 -1153 596 -1658 192 -257 514 -551 803 -732 324
-202 719 -348 1113 -411 194 -30 581 -38 779 -15 345 40 642 126 956 276 154
74 191 82 254 56 53 -22 79 -63 74 -117 -9 -90 -41 -113 -336 -240 -598 -257
-1279 -326 -1917 -193 -919 192 -1705 767 -2161 1581 -255 456 -388 910 -414
1415 -8 164 -5 201 19 246 28 52 127 69 175 31z"/>
<path d="M4954 7096 c-17 -8 -40 -26 -52 -41 -20 -26 -22 -39 -22 -184 l0
-157 -118 -11 c-188 -18 -302 -71 -419 -196 -67 -72 -114 -158 -138 -255 -13
-50 -16 -110 -13 -315 l3 -253 38 -76 c29 -59 54 -92 116 -150 104 -97 159
-128 369 -209 l177 -67 3 -532 2 -532 -97 4 c-76 3 -108 9 -141 27 -66 34
-128 97 -159 159 -25 51 -28 69 -31 187 -5 147 -17 181 -76 209 -46 22 -77 20
-117 -7 -56 -38 -60 -55 -56 -217 4 -124 8 -155 29 -212 68 -182 201 -317 374
-380 40 -14 94 -23 169 -27 l110 -6 5 -170 c5 -185 10 -203 63 -235 41 -25 83
-25 124 0 53 32 58 50 63 235 l5 170 76 6 c91 8 132 20 223 67 134 70 234 188
283 337 26 78 27 87 27 325 1 213 -1 252 -17 298 -28 78 -63 137 -123 201 -85
93 -156 137 -324 204 l-155 62 0 545 0 545 40 -3 c112 -8 209 -71 264 -172 34
-63 36 -69 41 -200 3 -74 11 -144 17 -155 36 -65 105 -89 167 -60 60 29 65 48
56 230 -5 88 -14 178 -20 200 -41 140 -164 286 -292 350 -81 39 -165 65 -218
65 -83 1 -80 -5 -80 159 0 164 -9 192 -72 231 -38 23 -61 24 -104 6z m-86
-1133 c2 -402 0 -493 -11 -493 -31 0 -224 84 -269 117 -59 42 -114 113 -129
162 -7 22 -9 114 -7 241 3 197 4 207 29 260 30 63 95 132 154 163 50 26 137
46 190 44 l40 -2 3 -492z m379 -939 c84 -40 178 -127 212 -197 21 -44 22 -55
19 -264 -3 -216 -3 -218 -31 -271 -56 -106 -152 -172 -259 -180 l-58 -4 0 481
0 482 23 -7 c12 -3 54 -22 94 -40z"/>
</g>
</svg>
